<svg xmlns="http://www.w3.org/2000/svg" version="1.1" xmlns:xlink="http://www.w3.org/1999/xlink" xmlns:svgjs="http://svgjs.dev/svgjs" viewBox="0 0 12.68200437268502 2.643189675419396"><g transform="matrix(1,0,0,1,2.590731858236381,0.780094837709698)"><g><path d=" M 0.8535 0.020999999999999908 Q 0.8475 0.08849999999999991 0.8452500000000001 0.15149999999999997 Q 0.843 0.2144999999999999 0.843 0.249 Q 0.843 0.2819999999999999 0.8445 0.31199999999999994 Q 0.846 0.34199999999999997 0.8475 0.363 L 0.8130000000000001 0.363 Q 0.7935 0.246 0.759 0.1792499999999999 Q 0.7245 0.11249999999999993 0.67425 0.08399999999999996 Q 0.624 0.05549999999999988 0.555 0.05549999999999988 L 0.5055000000000001 0.05549999999999988 Q 0.462 0.05549999999999988 0.4395 0.06299999999999994 Q 0.417 0.07050000000000001 0.40950000000000003 0.09299999999999997 Q 0.402 0.11549999999999994 0.402 0.16199999999999992 L 0.402 0.9149999999999999 Q 0.402 0.9734999999999999 0.41400000000000003 1.002 Q 0.426 1.0305 0.4605 1.0394999999999999 Q 0.495 1.0485 0.5625 1.05 L 0.5625 1.083 Q 0.516 1.0815 0.4425 1.08 Q 0.369 1.0785 0.28800000000000003 1.0785 Q 0.2235 1.0785 0.162 1.08 Q 0.1005 1.0815 0.051000000000000004 1.083 L 0.051000000000000004 1.053 Q 0.099 1.05 0.123 1.041 Q 0.147 1.032 0.15525 1.005 Q 0.1635 0.978 0.1635 0.9239999999999999 L 0.1635 0.17999999999999994 Q 0.1635 0.12449999999999994 0.15525 0.09824999999999995 Q 0.147 0.07199999999999984 0.12225 0.062249999999999917 Q 0.0975 0.05249999999999999 0.051000000000000004 0.050999999999999934 L 0.051000000000000004 0.020999999999999908 Q 0.132 0.022499999999999964 0.2265 0.02400000000000002 Q 0.321 0.025499999999999856 0.405 0.025499999999999856 Q 0.489 0.025499999999999856 0.54 0.025499999999999856 Q 0.609 0.025499999999999856 0.69675 0.02475000000000005 Q 0.7845 0.02400000000000002 0.8535 0.020999999999999908 M 0.63 0.5399999999999999 Q 0.63 0.5399999999999999 0.63 0.5549999999999999 Q 0.63 0.57 0.63 0.57 L 0.357 0.57 Q 0.357 0.57 0.357 0.5549999999999999 Q 0.357 0.5399999999999999 0.357 0.5399999999999999 L 0.63 0.5399999999999999 M 0.6675 0.34199999999999997 Q 0.6615 0.4275 0.66225 0.4724999999999999 Q 0.663 0.5175 0.663 0.5549999999999999 Q 0.663 0.5925 0.6645 0.6375 Q 0.666 0.6824999999999999 0.672 0.768 L 0.6375000000000001 0.768 Q 0.6285000000000001 0.7155 0.609 0.6704999999999999 Q 0.5895 0.6255 0.552 0.59775 Q 0.5145 0.57 0.4545 0.57 L 0.4545 0.5399999999999999 Q 0.5145 0.5399999999999999 0.5505 0.5069999999999999 Q 0.5865 0.474 0.6052500000000001 0.4282499999999999 Q 0.624 0.38249999999999995 0.633 0.34199999999999997 L 0.6675 0.34199999999999997 M 1.426469970703125 0.020999999999999908 L 1.426469970703125 0.050999999999999934 Q 1.375469970703125 0.05249999999999999 1.3492199707031252 0.062249999999999917 Q 1.322969970703125 0.07199999999999984 1.3139699707031252 0.09824999999999995 Q 1.304969970703125 0.12449999999999994 1.304969970703125 0.17999999999999994 L 1.304969970703125 0.942 Q 1.304969970703125 0.9884999999999999 1.311719970703125 1.011 Q 1.318469970703125 1.0334999999999999 1.338719970703125 1.041 Q 1.358969970703125 1.0485 1.399469970703125 1.0485 L 1.472969970703125 1.0485 Q 1.541969970703125 1.0485 1.598219970703125 1.0065 Q 1.6544699707031252 0.9644999999999999 1.692719970703125 0.8887499999999999 Q 1.730969970703125 0.813 1.745969970703125 0.714 L 1.780469970703125 0.714 Q 1.775969970703125 0.7649999999999999 1.775969970703125 0.846 Q 1.775969970703125 0.8805 1.777469970703125 0.9464999999999999 Q 1.778969970703125 1.0125 1.786469970703125 1.083 Q 1.709969970703125 1.08 1.613969970703125 1.07925 Q 1.517969970703125 1.0785 1.4429699707031252 1.0785 Q 1.391969970703125 1.0785 1.307969970703125 1.0785 Q 1.223969970703125 1.0785 1.129469970703125 1.07925 Q 1.034969970703125 1.08 0.9539699707031251 1.083 L 0.9539699707031251 1.053 Q 1.001969970703125 1.05 1.025969970703125 1.041 Q 1.049969970703125 1.032 1.058219970703125 1.005 Q 1.066469970703125 0.978 1.066469970703125 0.9239999999999999 L 1.066469970703125 0.17999999999999994 Q 1.066469970703125 0.12449999999999994 1.058219970703125 0.09824999999999995 Q 1.049969970703125 0.07199999999999984 1.025219970703125 0.062249999999999917 Q 1.000469970703125 0.05249999999999999 0.9539699707031251 0.050999999999999934 L 0.9539699707031251 0.020999999999999908 Q 0.991469970703125 0.022499999999999964 1.0552199707031251 0.02400000000000002 Q 1.118969970703125 0.025499999999999856 1.190969970703125 0.025499999999999856 Q 1.256969970703125 0.025499999999999856 1.320719970703125 0.02400000000000002 Q 1.384469970703125 0.022499999999999964 1.426469970703125 0.020999999999999908 M 2.34900439453125 0.020999999999999908 L 2.34900439453125 0.050999999999999934 Q 2.30100439453125 0.05249999999999999 2.27625439453125 0.062249999999999917 Q 2.25150439453125 0.07199999999999984 2.2440043945312502 0.09824999999999995 Q 2.23650439453125 0.12449999999999994 2.23650439453125 0.17999999999999994 L 2.23650439453125 0.9239999999999999 Q 2.23650439453125 0.978 2.24475439453125 1.005 Q 2.25300439453125 1.032 2.27700439453125 1.041 Q 2.30100439453125 1.05 2.34900439453125 1.053 L 2.34900439453125 1.083 Q 2.30850439453125 1.08 2.24700439453125 1.07925 Q 2.1855043945312502 1.0785 2.12250439453125 1.0785 Q 2.04900439453125 1.0785 1.98675439453125 1.07925 Q 1.92450439453125 1.08 1.88550439453125 1.083 L 1.88550439453125 1.053 Q 1.93350439453125 1.05 1.95750439453125 1.041 Q 1.98150439453125 1.032 1.98975439453125 1.005 Q 1.99800439453125 0.978 1.99800439453125 0.9239999999999999 L 1.99800439453125 0.17999999999999994 Q 1.99800439453125 0.12449999999999994 1.98975439453125 0.09824999999999995 Q 1.98150439453125 0.07199999999999984 1.95675439453125 0.062249999999999917 Q 1.93200439453125 0.05249999999999999 1.88550439453125 0.050999999999999934 L 1.88550439453125 0.020999999999999908 Q 1.92450439453125 0.022499999999999964 1.98675439453125 0.02400000000000002 Q 2.04900439453125 0.025499999999999856 2.12250439453125 0.025499999999999856 Q 2.1855043945312502 0.025499999999999856 2.24700439453125 0.02400000000000002 Q 2.30850439453125 0.022499999999999964 2.34900439453125 0.020999999999999908 M 2.86196923828125 0.01949999999999985 L 2.86196923828125 0.050999999999999934 Q 2.79446923828125 0.050999999999999934 2.77571923828125 0.06374999999999997 Q 2.75696923828125 0.07650000000000001 2.77796923828125 0.10799999999999998 L 3.37196923828125 0.9764999999999999 Q 3.40196923828125 1.0185 3.41996923828125 1.0334999999999999 Q 3.4379692382812497 1.0485 3.46796923828125 1.0514999999999999 L 3.46796923828125 1.083 Q 3.4379692382812497 1.0815 3.38096923828125 1.07925 Q 3.32396923828125 1.077 3.26246923828125 1.077 Q 3.19496923828125 1.077 3.12521923828125 1.07925 Q 3.05546923828125 1.0815 3.02096923828125 1.083 L 3.02096923828125 1.0514999999999999 Q 3.08996923828125 1.0514999999999999 3.1102192382812497 1.04175 Q 3.13046923828125 1.032 3.10946923828125 1.0005 L 2.5139692382812497 0.1259999999999999 Q 2.48546923828125 0.08250000000000002 2.4674692382812498 0.0674999999999999 Q 2.44946923828125 0.05249999999999999 2.41796923828125 0.050999999999999934 L 2.41796923828125 0.01949999999999985 Q 2.44946923828125 0.020999999999999908 2.51021923828125 0.023249999999999993 Q 2.57096923828125 0.025499999999999856 2.63246923828125 0.025499999999999856 Q 2.69996923828125 0.025499999999999856 2.76221923828125 0.023249999999999993 Q 2.82446923828125 0.020999999999999908 2.86196923828125 0.01949999999999985 M 2.87546923828125 0.5489999999999999 Q 2.87546923828125 0.5489999999999999 2.88146923828125 0.5685 Q 2.88746923828125 0.588 2.88746923828125 0.588 L 2.7374692382812498 0.7935 Q 2.67746923828125 0.8744999999999999 2.66996923828125 0.93075 Q 2.66246923828125 0.987 2.69621923828125 1.01775 Q 2.72996923828125 1.0485 2.7959692382812498 1.053 L 2.7959692382812498 1.083 Q 2.76746923828125 1.0815 2.72096923828125 1.0807499999999999 Q 2.67446923828125 1.08 2.62946923828125 1.07925 Q 2.5844692382812497 1.0785 2.55896923828125 1.0785 Q 2.46896923828125 1.0785 2.4209692382812498 1.083 L 2.4209692382812498 1.053 Q 2.47346923828125 1.035 2.52746923828125 0.98925 Q 2.58146923828125 0.9435 2.63846923828125 0.87 L 2.87546923828125 0.5489999999999999 M 3.40046923828125 0.020999999999999908 L 3.40046923828125 0.050999999999999934 Q 3.35096923828125 0.0645 3.30221923828125 0.10799999999999998 Q 3.25346923828125 0.15149999999999997 3.21146923828125 0.2084999999999999 L 2.96846923828125 0.5325 Q 2.96846923828125 0.5325 2.96321923828125 0.5129999999999999 Q 2.95796923828125 0.49349999999999994 2.95796923828125 0.49349999999999994 L 3.1124692382812498 0.2849999999999999 Q 3.19796923828125 0.1755 3.1814692382812497 0.11549999999999994 Q 3.16496923828125 0.05549999999999988 3.07346923828125 0.050999999999999934 L 3.07346923828125 0.020999999999999908 Q 3.11696923828125 0.022499999999999964 3.17096923828125 0.02400000000000002 Q 3.22496923828125 0.025499999999999856 3.26246923828125 0.025499999999999856 Q 3.35246923828125 0.025499999999999856 3.40046923828125 0.020999999999999908 M 4.8433513183593755 0.020999999999999908 L 4.8433513183593755 0.050999999999999934 Q 4.7953513183593754 0.05699999999999994 4.771351318359375 0.07574999999999998 Q 4.747351318359375 0.09449999999999992 4.739101318359375 0.1349999999999999 Q 4.730851318359376 0.1755 4.730851318359376 0.249 L 4.730851318359376 1.0859999999999999 Q 4.712851318359375 1.0845 4.694101318359375 1.0845 Q 4.675351318359375 1.0845 4.654351318359375 1.0859999999999999 L 4.003351318359375 0.2609999999999999 L 4.003351318359375 0.837 Q 4.003351318359375 0.9195 4.012351318359375 0.96375 Q 4.021351318359375 1.008 4.052101318359375 1.02675 Q 4.082851318359375 1.0454999999999999 4.148851318359375 1.053 L 4.148851318359375 1.083 Q 4.120351318359376 1.08 4.073851318359376 1.07925 Q 4.027351318359375 1.0785 3.986851318359375 1.0785 Q 3.952351318359375 1.0785 3.916351318359375 1.07925 Q 3.880351318359375 1.08 3.8563513183593754 1.083 L 3.8563513183593754 1.053 Q 3.904351318359375 1.0454999999999999 3.928351318359375 1.0274999999999999 Q 3.952351318359375 1.0095 3.9606013183593753 0.9682499999999999 Q 3.968851318359375 0.9269999999999999 3.968851318359375 0.855 L 3.968851318359375 0.17999999999999994 Q 3.968851318359375 0.12449999999999994 3.9606013183593753 0.09824999999999995 Q 3.952351318359375 0.07199999999999984 3.927601318359375 0.062249999999999917 Q 3.9028513183593754 0.05249999999999999 3.8563513183593754 0.050999999999999934 L 3.8563513183593754 0.020999999999999908 Q 3.880351318359375 0.022499999999999964 3.916351318359375 0.02400000000000002 Q 3.952351318359375 0.025499999999999856 3.986851318359375 0.025499999999999856 Q 4.0228513183593755 0.025499999999999856 4.055851318359375 0.02400000000000002 Q 4.088851318359375 0.022499999999999964 4.1158513183593755 0.020999999999999908 L 4.696351318359375 0.7364999999999999 L 4.696351318359375 0.2669999999999999 Q 4.696351318359375 0.1845 4.687351318359375 0.14024999999999999 Q 4.6783513183593755 0.09599999999999997 4.647601318359375 0.07650000000000001 Q 4.616851318359375 0.05699999999999994 4.550851318359375 0.050999999999999934 L 4.550851318359375 0.020999999999999908 Q 4.579351318359375 0.022499999999999964 4.625851318359375 0.02400000000000002 Q 4.672351318359375 0.025499999999999856 4.712851318359375 0.025499999999999856 Q 4.7488513183593755 0.025499999999999856 4.784101318359375 0.02400000000000002 Q 4.8193513183593755 0.022499999999999964 4.8433513183593755 0.020999999999999908 M 5.486800048828125 0 Q 5.645800048828125 0 5.765050048828125 0.0645 Q 5.884300048828125 0.1289999999999999 5.950300048828125 0.24974999999999992 Q 6.016300048828125 0.37049999999999994 6.016300048828125 0.5429999999999999 Q 6.016300048828125 0.711 5.948800048828125 0.837 Q 5.881300048828125 0.963 5.760550048828125 1.0334999999999999 Q 5.639800048828125 1.1039999999999999 5.485300048828125 1.1039999999999999 Q 5.3263000488281245 1.1039999999999999 5.207050048828125 1.0394999999999999 Q 5.087800048828125 0.975 5.0218000488281245 0.8534999999999999 Q 4.955800048828125 0.732 4.955800048828125 0.5609999999999999 Q 4.955800048828125 0.3929999999999999 5.024050048828125 0.2669999999999999 Q 5.0923000488281245 0.1409999999999999 5.211550048828125 0.07050000000000001 Q 5.330800048828125 0 5.486800048828125 0 M 5.480800048828125 0.026999999999999913 Q 5.3968000488281245 0.026999999999999913 5.334550048828125 0.09449999999999992 Q 5.272300048828125 0.16199999999999992 5.238550048828125 0.28049999999999997 Q 5.204800048828125 0.3989999999999999 5.204800048828125 0.5549999999999999 Q 5.204800048828125 0.714 5.243050048828125 0.83175 Q 5.2813000488281245 0.9495 5.346550048828125 1.01325 Q 5.411800048828125 1.077 5.4913000488281245 1.077 Q 5.575300048828125 1.077 5.637550048828125 1.0095 Q 5.699800048828125 0.942 5.733550048828125 0.82275 Q 5.767300048828125 0.7035 5.767300048828125 0.5489999999999999 Q 5.767300048828125 0.38849999999999996 5.729050048828125 0.27149999999999996 Q 5.690800048828125 0.15449999999999997 5.625550048828125 0.09075 Q 5.560300048828125 0.026999999999999913 5.480800048828125 0.026999999999999913 M 7.424851318359376 0.020999999999999908 L 7.424851318359376 0.050999999999999934 Q 7.376851318359376 0.05249999999999999 7.3528513183593756 0.062249999999999917 Q 7.3288513183593755 0.07199999999999984 7.320601318359375 0.09824999999999995 Q 7.312351318359376 0.12449999999999994 7.312351318359376 0.17999999999999994 L 7.312351318359376 0.9239999999999999 Q 7.312351318359376 0.978 7.320601318359375 1.005 Q 7.3288513183593755 1.032 7.3528513183593756 1.041 Q 7.376851318359376 1.05 7.424851318359376 1.053 L 7.424851318359376 1.083 Q 7.382851318359375 1.08 7.319101318359375 1.07925 Q 7.255351318359375 1.0785 7.189351318359376 1.0785 Q 7.1173513183593755 1.0785 7.054351318359376 1.07925 Q 6.991351318359375 1.08 6.9523513183593755 1.083 L 6.9523513183593755 1.053 Q 7.003351318359376 1.05 7.029601318359376 1.041 Q 7.055851318359375 1.032 7.064851318359375 1.005 Q 7.073851318359376 0.978 7.073851318359376 0.9239999999999999 L 7.073851318359376 0.11249999999999993 L 7.084351318359375 0.11249999999999993 L 6.712351318359375 1.0845 L 6.688351318359375 1.0845 L 6.283351318359376 0.11849999999999994 L 6.283351318359376 0.837 Q 6.283351318359376 0.9195 6.292351318359375 0.96375 Q 6.301351318359376 1.008 6.332101318359375 1.02675 Q 6.362851318359375 1.0454999999999999 6.428851318359375 1.053 L 6.428851318359375 1.083 Q 6.400351318359375 1.08 6.353851318359375 1.07925 Q 6.307351318359375 1.0785 6.266851318359375 1.0785 Q 6.232351318359376 1.0785 6.196351318359375 1.07925 Q 6.160351318359376 1.08 6.136351318359376 1.083 L 6.136351318359376 1.053 Q 6.184351318359376 1.0454999999999999 6.208351318359376 1.0274999999999999 Q 6.232351318359376 1.0095 6.240601318359375 0.9682499999999999 Q 6.2488513183593755 0.9269999999999999 6.2488513183593755 0.855 L 6.2488513183593755 0.17999999999999994 Q 6.2488513183593755 0.12449999999999994 6.240601318359375 0.09824999999999995 Q 6.232351318359376 0.07199999999999984 6.207601318359376 0.062249999999999917 Q 6.182851318359376 0.05249999999999999 6.136351318359376 0.050999999999999934 L 6.136351318359376 0.020999999999999908 Q 6.160351318359376 0.022499999999999964 6.196351318359375 0.02400000000000002 Q 6.232351318359376 0.025499999999999856 6.266851318359375 0.025499999999999856 Q 6.331351318359375 0.025499999999999856 6.393601318359376 0.02400000000000002 Q 6.455851318359375 0.022499999999999964 6.503851318359375 0.020999999999999908 L 6.818851318359376 0.7815 L 6.781351318359375 0.816 L 7.082851318359375 0.025499999999999856 Q 7.108351318359375 0.025499999999999856 7.135351318359375 0.025499999999999856 Q 7.162351318359375 0.025499999999999856 7.189351318359376 0.025499999999999856 Q 7.255351318359375 0.025499999999999856 7.319101318359375 0.02400000000000002 Q 7.382851318359375 0.022499999999999964 7.424851318359376 0.020999999999999908 M 8.041354248046876 0.018000000000000016 L 8.405854248046875 0.957 Q 8.426854248046876 1.011 8.453104248046875 1.03125 Q 8.479354248046876 1.0514999999999999 8.500354248046875 1.053 L 8.500354248046875 1.083 Q 8.455354248046875 1.08 8.394604248046877 1.07925 Q 8.333854248046876 1.0785 8.272354248046875 1.0785 Q 8.203354248046876 1.0785 8.141854248046876 1.07925 Q 8.080354248046875 1.08 8.044354248046876 1.083 L 8.044354248046876 1.053 Q 8.120854248046877 1.05 8.141104248046876 1.02675 Q 8.161354248046877 1.0035 8.131354248046875 0.9269999999999999 L 7.8763542480468764 0.22949999999999993 L 7.903354248046876 0.1904999999999999 L 7.675354248046876 0.7845 Q 7.633354248046876 0.8955 7.634104248046876 0.9524999999999999 Q 7.634854248046876 1.0095 7.670854248046876 1.02975 Q 7.706854248046876 1.05 7.766854248046876 1.053 L 7.766854248046876 1.083 Q 7.717354248046876 1.08 7.672354248046876 1.07925 Q 7.627354248046876 1.0785 7.580854248046876 1.0785 Q 7.547854248046876 1.0785 7.518604248046876 1.07925 Q 7.489354248046876 1.08 7.466854248046876 1.083 L 7.466854248046876 1.053 Q 7.498354248046876 1.047 7.531354248046876 1.0125 Q 7.564354248046876 0.978 7.595854248046876 0.8955 L 7.937854248046876 0.018000000000000016 Q 7.961854248046876 0.01949999999999985 7.989604248046876 0.01949999999999985 Q 8.017354248046876 0.01949999999999985 8.041354248046876 0.018000000000000016 M 8.146354248046876 0.651 L 8.146354248046876 0.6809999999999999 L 7.699354248046876 0.6809999999999999 L 7.714354248046876 0.651 L 8.146354248046876 0.651 M 8.989313232421877 0.020999999999999908 Q 9.284813232421877 0.020999999999999908 9.428813232421877 0.1552499999999999 Q 9.572813232421877 0.2895 9.572813232421877 0.5399999999999999 Q 9.572813232421877 0.7035 9.502313232421876 0.82575 Q 9.431813232421877 0.948 9.297563232421876 1.0154999999999998 Q 9.163313232421876 1.083 8.975813232421876 1.083 Q 8.939813232421876 1.083 8.873063232421877 1.0807499999999999 Q 8.806313232421877 1.0785 8.756813232421877 1.0785 Q 8.690813232421876 1.0785 8.627063232421877 1.07925 Q 8.563313232421876 1.08 8.525813232421877 1.083 L 8.525813232421877 1.053 Q 8.573813232421877 1.05 8.597813232421876 1.041 Q 8.621813232421877 1.032 8.630063232421877 1.005 Q 8.638313232421877 0.978 8.638313232421877 0.9239999999999999 L 8.638313232421877 0.17999999999999994 Q 8.638313232421877 0.12449999999999994 8.630063232421877 0.09824999999999995 Q 8.621813232421877 0.07199999999999984 8.597063232421876 0.062249999999999917 Q 8.572313232421877 0.05249999999999999 8.525813232421877 0.050999999999999934 L 8.525813232421877 0.020999999999999908 Q 8.563313232421876 0.022499999999999964 8.627063232421877 0.02475000000000005 Q 8.690813232421876 0.026999999999999913 8.753813232421876 0.025499999999999856 Q 8.807813232421877 0.02400000000000002 8.876063232421876 0.022499999999999964 Q 8.944313232421877 0.020999999999999908 8.989313232421877 0.020999999999999908 M 8.987813232421876 0.04800000000000004 Q 8.918813232421877 0.04800000000000004 8.897813232421877 0.0734999999999999 Q 8.876813232421876 0.09899999999999998 8.876813232421876 0.17699999999999994 L 8.876813232421876 0.9269999999999999 Q 8.876813232421876 1.005 8.898563232421877 1.0305 Q 8.920313232421876 1.056 8.989313232421877 1.056 Q 9.115313232421876 1.056 9.188063232421877 0.9967499999999999 Q 9.260813232421876 0.9375 9.292313232421877 0.8234999999999999 Q 9.323813232421877 0.7095 9.323813232421877 0.5459999999999999 Q 9.323813232421877 0.29399999999999993 9.245813232421877 0.17099999999999993 Q 9.167813232421876 0.04800000000000004 8.987813232421876 0.04800000000000004" fill="#ffffff" fill-rule="nonzero"></path></g><g></g><g clip-path="url(#SvgjsClipPath1000)"><path d=" M -2.1382740410533665 0.5415 C -2.1382740410533665 0.0614888780497397 -1.7491481424769437 -0.32763702052668314 -1.2691370205266834 -0.3276370205266833 C -0.789125898576423 -0.3276370205266833 -0.40000000000000013 0.06148887804973939 -0.3999999999999999 0.5414999999999996 C -0.3999999999999999 1.0215111219502602 -0.7891258985764228 1.4106370205266834 -1.2691370205266832 1.4106370205266834 C -1.7491481424769435 1.4106370205266834 -2.1382740410533665 1.0215111219502604 -2.1382740410533665 0.5415000000000001 Z M -2.0913472198862433 0.5415 C -2.091347219886243 0.9955941542616213 -1.7232311747883042 1.3637101993595597 -1.2691370205266832 1.3637101993595597 C -0.8150428662650618 1.3637101993595597 -0.44692682116712334 0.9955941542616212 -0.44692682116712334 0.5415 C -0.44692682116712334 0.0874058457383787 -0.8150428662650618 -0.2807101993595599 -1.2691370205266832 -0.2807101993595599 C -1.7232311747883042 -0.2807101993595599 -2.091347219886243 0.08740584573837862 -2.0913472198862433 0.5414999999999999 Z" fill="#67a97b" transform="matrix(1,0,0,1,0,0)" fill-rule="nonzero"></path><path d=" M -1.6706044316628126 0.9393650237480992 C -1.6946861213218796 0.9444732609485073 -1.715848818294999 0.9492166240631721 -1.7340925225821708 0.9535951130920932 C -1.7253355445243284 0.9222159417181575 -1.7167610035093577 0.8870055924439156 -1.7083688995372586 0.8479640652693679 C -1.6999767955651595 0.8089225380948198 -1.6915846915930604 0.767874203448683 -1.6831925876209612 0.7248190613309572 C -1.6748004836488621 0.6817639192132314 -1.6667732537625066 0.6381614659668905 -1.6591108979618943 0.5940117015919344 C -1.6514485421612821 0.5498619372169784 -1.6439686234035416 0.5073541062278678 -1.6366711416886728 0.46648820862460266 C -1.6213464300874485 0.369431701816848 -1.606021718486224 0.26909132823740234 -1.5906970068849995 0.16546708788626582 L -1.2239985507128437 0.14685850951335044 L -1.255742596172523 0.28149704715267926 L -1.4275982905576825 0.28149704715267926 L -1.4615315805318223 0.47633980893967554 C -1.438909387215729 0.4756100607681886 -1.4173818161568663 0.4752451866824452 -1.3969488673552337 0.4752451866824452 C -1.3801646594110355 0.4752451866824452 -1.363015577381094 0.4752451866824452 -1.345501621265409 0.4752451866824452 C -1.3279876651497238 0.4752451866824452 -1.3144873239772166 0.47488031259670177 -1.3050005977478871 0.47415056442521486 C -1.3071898422623478 0.4945835132268474 -1.3099263979054236 0.5146515879427366 -1.3132102646771144 0.5343547885728823 C -1.3164941314488054 0.554057989203028 -1.3195955611776247 0.5737611898331736 -1.3225145538635723 0.5934643904633192 C -1.3320012800929015 0.5934643904633192 -1.345501621265409 0.5932819534204476 -1.363015577381094 0.5929170793347041 C -1.3805295334967789 0.5925522052489607 -1.3985908007410792 0.5920048941203455 -1.4171993791139945 0.5912751459488585 C -1.4358079574869098 0.5905453977773718 -1.4567882174171576 0.589815649605885 -1.4801401589047376 0.5890859014343981 L -1.5304927827373322 0.9119994673173413 C -1.555304220567886 0.9163779563462624 -1.5797507843126963 0.9211213194609272 -1.6038324739717633 0.9262295566613353 C -1.624265422773396 0.9298782975187696 -1.6465227420037456 0.934256786547691 -1.6706044316628126 0.9393650237480992 M -1.3586333469675043 0.9579736021210145 C -1.3382003981658719 0.8550791099413647 -1.318497197535726 0.7547387363619191 -1.2995237450770674 0.6569524813826777 C -1.2922262633621986 0.6160865837794125 -1.2843814705187147 0.5732138787045584 -1.2759893665466155 0.5283343661581155 C -1.2675972625745164 0.48345485361167256 -1.2597524697310325 0.43930508923671646 -1.2524549880161637 0.39588507303324727 C -1.245157506301295 0.35246505682977813 -1.2384073357150414 0.31050453696928265 -1.232204476257403 0.270003513451761 C -1.2260016167997645 0.2295024899342393 -1.221075816642228 0.1924677702312803 -1.2174270757847936 0.158899354342884 C -1.1948048824687003 0.1574398579999102 -1.172912437324094 0.1559803616569364 -1.1517497403509747 0.15452086531396264 C -1.132776287892316 0.15306136897098885 -1.1134379613479135 0.15178430967088682 -1.0937347607177679 0.15068968741365654 C -1.0740315600876222 0.14959506515642626 -1.0565176039719373 0.1483180058563242 -1.0411928923707128 0.14685850951335044 C -1.0317061661413833 0.20304911871783993 -1.0233140621692844 0.2566856093221255 -1.0160165804544157 0.30776798132620686 C -1.012367839596981 0.3296604264708132 -1.008536661696675 0.35246505682977813 -1.0045230467534974 0.37618187240310164 C -1.0005094318103194 0.39989868797642514 -0.9966782539100133 0.42270331833539004 -0.993029513052579 0.44459576347999635 C -0.9893807721951445 0.46648820862460266 -0.98573203133771 0.4874684685548504 -0.9820832904802758 0.5075365432707395 C -0.9784345496228414 0.5276046179866286 -0.9747858087654069 0.5453010111451855 -0.9711370679079726 0.5606257227464099 C -0.968218075222025 0.5453010111451855 -0.9649342084503341 0.5276046179866286 -0.9612854675928997 0.5075365432707395 C -0.9576367267354654 0.4874684685548504 -0.9536231117922875 0.4663057715817309 -0.9492446227633662 0.4440484523513812 C -0.944866133734445 0.42179113312103145 -0.940305207662652 0.39898650276206654 -0.9355618445479872 0.37563456127448647 C -0.9308184814333226 0.35228261978690645 -0.9262575553615296 0.3296604264708132 -0.9218790663326083 0.30776798132620686 C -0.9109328437603053 0.2566856093221255 -0.8996217471022587 0.20341399280358338 -0.8879457763584686 0.14795313177058078 L -0.7544018609763701 0.13153379791212605 C -0.7792132988069239 0.24099602363515762 -0.8011057439515301 0.3446202639862942 -0.820079196410189 0.4424065189655357 C -0.8288361744680315 0.4847319129117746 -0.8374107154830024 0.5274221809437569 -0.8458028194551015 0.5704773230614826 C -0.8541949234272005 0.6135324651792083 -0.8620397162706843 0.6551281109539604 -0.8693371979855531 0.6952642603857387 C -0.876634679700422 0.735400409817517 -0.8828375391580606 0.7724351295204759 -0.8879457763584686 0.8063684194946157 C -0.8930540135588767 0.8403017094687555 -0.8970676285020547 0.8689443251996155 -0.899986621188002 0.8922962666871955 C -0.9021758657024627 0.8922962666871955 -0.9107504067174335 0.8939382000730409 -0.9257102442329144 0.8972220668447319 C -0.9406700817483955 0.900505933616423 -0.9578191637783371 0.904337111516729 -0.9771574903227394 0.9087156005456503 C -0.9964958168671416 0.9130940895745715 -1.0158341434115439 0.9176550156463644 -1.035172469955946 0.9223983787610293 C -1.0545107965003484 0.927141741875694 -1.0689233228872141 0.930972919776 -1.0784100491165436 0.9338919124619475 C -1.0835182863169517 0.8747823105715105 -1.0889913976031034 0.8185917013670209 -1.0948293829749982 0.7653200848484789 C -1.0970186274894589 0.7426978915323857 -1.0995727460896632 0.7193459500448056 -1.1024917387756106 0.6952642603857387 C -1.105410731461558 0.6711825707266718 -1.1081472871046338 0.648195503324835 -1.1107014057048379 0.6263030581802287 C -1.1132555243050417 0.6044106130356224 -1.115809642905246 0.5837952271911182 -1.1183637615054502 0.5644569006467159 C -1.120917880105654 0.5451185741023137 -1.1232895616629865 0.5288816772867306 -1.1254788061774472 0.5157462101999669 C -1.1276680506919077 0.5288816772867306 -1.1305870433778553 0.5449361370594419 -1.1342357842352897 0.5639095895181008 C -1.137884525092724 0.5828830419767596 -1.1415332659501582 0.6031335537355205 -1.1451820068075929 0.6246611247943833 C -1.148830747665027 0.6461886958532462 -1.1524794885224616 0.6684460150835959 -1.156128229379896 0.6914330824854326 C -1.1597769702373304 0.7144201498872692 -1.1637905851805082 0.7368599061604907 -1.1681690742094295 0.758752351305097 C -1.177655800438759 0.8105644714806652 -1.1878722748395751 0.8645658361706942 -1.1988184974118783 0.9207564453751838 L -1.3586333469675043 0.9579736021210145" fill="#67a97b" transform="matrix(1,0,0,1,0,0)" fill-rule="nonzero"></path></g></g><defs><clipPath id="SvgjsClipPath1000"><path d=" M -2.1382740410533665 -0.3276370205266833 h 1.7382740410533666 v 1.7382740410533666 h -1.7382740410533666 Z"></path></clipPath></defs></svg>