<svg xmlns="http://www.w3.org/2000/svg" version="1.1" xmlns:xlink="http://www.w3.org/1999/xlink" xmlns:svgjs="http://svgjs.dev/svgjs" viewBox="0 0 11.435760919317948 1.8179730265189065"><g transform="matrix(1,0,0,1,1.908385177066111,0.3734865132594535)"><g><path d=" M 0.0915 1.0709999999999997 L 0.0915 0.005999999999999783 L 0.8220000000000001 0.005999999999999783 L 0.8220000000000001 0.2609999999999997 L 0.384 0.2609999999999997 L 0.384 0.4379999999999997 L 0.741 0.4379999999999997 L 0.741 0.6749999999999997 L 0.384 0.6749999999999997 L 0.384 1.0709999999999997 L 0.0915 1.0709999999999997 M 0.940482421875 1.0709999999999997 L 0.940482421875 0.005999999999999783 L 1.232982421875 0.005999999999999783 L 1.232982421875 0.8159999999999997 L 1.715982421875 0.8159999999999997 L 1.715982421875 1.0709999999999997 L 0.940482421875 1.0709999999999997 M 1.8225153808593748 1.0709999999999997 L 1.8225153808593748 0.005999999999999783 L 2.115015380859375 0.005999999999999783 L 2.115015380859375 1.0709999999999997 L 1.8225153808593748 1.0709999999999997 M 2.511040283203125 0.005999999999999783 L 2.704540283203125 0.34199999999999975 L 2.898040283203125 0.005999999999999783 L 3.2130402832031253 0.005999999999999783 L 2.878540283203125 0.5459999999999997 L 3.201040283203125 1.0709999999999997 L 2.8860402832031253 1.0709999999999997 L 2.704540283203125 0.7499999999999998 L 2.523040283203125 1.0709999999999997 L 2.206540283203125 1.0709999999999997 L 2.529040283203125 0.5459999999999997 L 2.194540283203125 0.005999999999999783 L 2.511040283203125 0.005999999999999783 M 3.911962646484375 0.5474999999999998 L 3.911962646484375 1.0709999999999997 L 3.619462646484375 1.0709999999999997 L 3.619462646484375 0.005999999999999783 L 3.847462646484375 0.005999999999999783 L 4.274962646484375 0.5474999999999998 L 4.274962646484375 0.005999999999999783 L 4.567462646484375 0.005999999999999783 L 4.567462646484375 1.0709999999999997 L 4.334962646484375 1.0709999999999997 L 3.911962646484375 0.5474999999999998 M 5.2350051269531255 1.0799999999999996 Q 5.113505126953125 1.0799999999999996 5.014505126953125 1.0342499999999997 Q 4.915505126953125 0.9884999999999997 4.844255126953125 0.9112499999999997 Q 4.773005126953125 0.8339999999999997 4.734755126953125 0.7372499999999997 Q 4.6965051269531255 0.6404999999999997 4.6965051269531255 0.5369999999999997 Q 4.6965051269531255 0.43049999999999977 4.737005126953125 0.3344999999999997 Q 4.777505126953125 0.2384999999999997 4.850255126953125 0.16274999999999973 Q 4.923005126953125 0.08699999999999974 5.022755126953125 0.04349999999999965 Q 5.122505126953125 -2.220446049250313e-16 5.241005126953125 -2.220446049250313e-16 Q 5.362505126953125 -2.220446049250313e-16 5.461505126953125 0.045749999999999735 Q 5.560505126953125 0.09149999999999969 5.631005126953125 0.16949999999999976 Q 5.701505126953125 0.24749999999999972 5.739755126953125 0.3442499999999997 Q 5.778005126953126 0.4409999999999997 5.778005126953126 0.5429999999999997 Q 5.778005126953126 0.6479999999999997 5.738255126953125 0.7439999999999998 Q 5.698505126953125 0.8399999999999997 5.625755126953125 0.9157499999999997 Q 5.553005126953125 0.9914999999999997 5.454005126953125 1.0357499999999997 Q 5.355005126953126 1.0799999999999996 5.2350051269531255 1.0799999999999996 M 4.993505126953125 0.5399999999999997 Q 4.993505126953125 0.5939999999999996 5.008505126953125 0.6442499999999998 Q 5.0235051269531255 0.6944999999999997 5.053505126953125 0.7342499999999997 Q 5.083505126953125 0.7739999999999998 5.129255126953125 0.7972499999999998 Q 5.175005126953125 0.8204999999999998 5.238005126953125 0.8204999999999998 Q 5.301005126953125 0.8204999999999998 5.347505126953125 0.7964999999999998 Q 5.394005126953125 0.7724999999999997 5.4232551269531255 0.7312499999999997 Q 5.452505126953125 0.6899999999999997 5.466755126953125 0.6397499999999997 Q 5.481005126953125 0.5894999999999997 5.481005126953125 0.5369999999999997 Q 5.481005126953125 0.48299999999999976 5.466005126953125 0.43349999999999966 Q 5.451005126953125 0.3839999999999997 5.421005126953125 0.3442499999999997 Q 5.391005126953125 0.30449999999999966 5.344505126953125 0.2819999999999997 Q 5.298005126953125 0.25949999999999973 5.2365051269531255 0.25949999999999973 Q 5.173505126953125 0.25949999999999973 5.127755126953125 0.28349999999999975 Q 5.082005126953125 0.30749999999999966 5.052005126953125 0.3472499999999997 Q 5.022005126953125 0.3869999999999997 5.007755126953125 0.4372499999999997 Q 4.993505126953125 0.4874999999999997 4.993505126953125 0.5399999999999997 M 6.7125270996093755 1.0709999999999997 L 6.7125270996093755 0.5099999999999997 L 6.534027099609375 0.9044999999999997 L 6.378027099609375 0.9044999999999997 L 6.199527099609376 0.5099999999999997 L 6.199527099609376 1.0709999999999997 L 5.907027099609375 1.0709999999999997 L 5.907027099609375 0.005999999999999783 L 6.226527099609376 0.005999999999999783 L 6.456027099609376 0.5069999999999997 L 6.6870270996093755 0.005999999999999783 L 7.005027099609375 0.005999999999999783 L 7.005027099609375 1.0709999999999997 L 6.7125270996093755 1.0709999999999997 M 7.438532958984376 0.005999999999999783 L 7.765532958984376 0.005999999999999783 L 8.104532958984375 1.0709999999999997 L 7.807532958984376 1.0709999999999997 L 7.743032958984376 0.8624999999999997 L 7.459532958984376 0.8624999999999997 L 7.396532958984375 1.0709999999999997 L 7.098032958984375 1.0709999999999997 L 7.438532958984376 0.005999999999999783 M 7.696532958984376 0.6674999999999998 L 7.602032958984376 0.29249999999999976 L 7.503032958984376 0.6674999999999998 L 7.696532958984376 0.6674999999999998 M 8.197521240234375 1.0709999999999997 L 8.197521240234375 0.005999999999999783 L 8.607021240234374 0.005999999999999783 Q 8.784021240234376 0.005999999999999783 8.903271240234375 0.07724999999999971 Q 9.022521240234374 0.14849999999999974 9.083271240234374 0.26924999999999977 Q 9.144021240234375 0.3899999999999997 9.144021240234375 0.5369999999999997 Q 9.144021240234375 0.6989999999999997 9.077271240234374 0.8189999999999997 Q 9.010521240234375 0.9389999999999997 8.889771240234374 1.0049999999999997 Q 8.769021240234375 1.0709999999999997 8.607021240234374 1.0709999999999997 L 8.197521240234375 1.0709999999999997 M 8.847021240234374 0.5369999999999997 Q 8.847021240234374 0.4544999999999997 8.818521240234375 0.39224999999999977 Q 8.790021240234374 0.32999999999999974 8.736021240234376 0.29549999999999976 Q 8.682021240234375 0.2609999999999997 8.607021240234374 0.2609999999999997 L 8.490021240234375 0.2609999999999997 L 8.490021240234375 0.8159999999999997 L 8.607021240234374 0.8159999999999997 Q 8.683521240234375 0.8159999999999997 8.736771240234376 0.7799999999999998 Q 8.790021240234374 0.7439999999999998 8.818521240234375 0.6802499999999998 Q 8.847021240234374 0.6164999999999997 8.847021240234374 0.5369999999999997" fill="#3260b2" fill-rule="nonzero"></path></g><g></g><g clip-path="url(#SvgjsClipPath1018)"><g clip-path="url(#a4c5ea139-76ec-4471-9b6f-bcd032d23beb2a7e6711-7e74-4965-9019-01ffa89d6788)"><path d=" M -0.5739782235014677 0.8378670733188361 L -0.5148933159688818 0.8378670733188361 L -0.5148933159688818 0.6015206979510322 L -0.5739782235014677 0.6015206979510322 Z" fill="#f3c380" transform="matrix(1,0,0,1,0,0)" fill-rule="nonzero"></path></g><g clip-path="url(#a4c5ea139-76ec-4471-9b6f-bcd032d23beb2a7e6711-7e74-4965-9019-01ffa89d6788)"><path d=" M -0.5148933159688818 0.6015190116416672 L -0.3999999999999999 0.5268542918853938 L -0.3999999999999999 0.9143901059953936 L -0.5148933159688818 0.8378670733188363 L -0.5148933159688818 0.6015190116416672" fill="#3260b2" transform="matrix(1,0,0,1,0,0)" fill-rule="nonzero"></path></g><g clip-path="url(#a4c5ea139-76ec-4471-9b6f-bcd032d23beb2a7e6711-7e74-4965-9019-01ffa89d6788)"><path d=" M -0.551469366096794 0.6208660389868741 L -0.5373988007548254 0.6208660389868741 L -0.5402149373944571 0.8065674851941622 L -0.5486582883852571 0.8037513485545305 L -0.5570965804479622 0.6208660389868741" fill="#c9792a" transform="matrix(1,0,0,1,0,0)" fill-rule="nonzero"></path></g><g clip-path="url(#a4c5ea139-76ec-4471-9b6f-bcd032d23beb2a7e6711-7e74-4965-9019-01ffa89d6788)"><path d=" M -1.3488255725759157 1.0341990137633932 L -0.5736257848441726 1.0341990137633932 L -0.5736257848441726 0.4475555939939657 L -1.3488255725759157 0.4475555939939657 Z" fill="#3260b2" transform="matrix(1,0,0,1,0,0)" fill-rule="nonzero"></path></g><g clip-path="url(#a4c5ea139-76ec-4471-9b6f-bcd032d23beb2a7e6711-7e74-4965-9019-01ffa89d6788)"><path d=" M -1.1051268883764984 1.0971371381951158 L -0.8054730868260258 1.0971371381951158 L -0.8054730868260258 1.0338313983218126 L -1.1051268883764984 1.0338313983218126 Z" fill="#f3c380" transform="matrix(1,0,0,1,0,0)" fill-rule="nonzero"></path></g><g clip-path="url(#a4c5ea139-76ec-4471-9b6f-bcd032d23beb2a7e6711-7e74-4965-9019-01ffa89d6788)"><path d=" M -1.0013547826701146 0.2537025283160309 C -1.0013547826701146 0.40825615424149936 -1.1266458821838885 0.5335489400646382 -1.2811961354906267 0.5335489400646382 C -1.4357447024880001 0.5335489400646382 -1.5610358020017738 0.40825615424149936 -1.5610358020017738 0.2537025283160309 C -1.5610358020017738 0.09915564762802251 -1.4357447024880001 -0.026137138195116205 -1.2811961354906267 -0.026137138195116205 C -1.1266458821838885 -0.026137138195116205 -1.0013547826701146 0.09915564762802251 -1.0013547826701146 0.2537025283160309" fill="#c9792a" transform="matrix(1,0,0,1,0,0)" fill-rule="nonzero"></path></g><g clip-path="url(#a4c5ea139-76ec-4471-9b6f-bcd032d23beb2a7e6711-7e74-4965-9019-01ffa89d6788)"><path d=" M -1.3184332188896382 0.338238903095301 C -1.3651170073516539 0.317677733007259 -1.3862903077392088 0.2631542923071304 -1.3657240787230716 0.21646881753574965 C -1.3451629086350294 0.16978334276436893 -1.2906462131723613 0.148610042376814 -1.2439573657822502 0.169174585083586 C -1.1972769499389646 0.18973912779035837 -1.1760952180045845 0.24425750956239162 -1.1966580744019915 0.29094635695250254 C -1.217224303418129 0.33762677279578823 -1.2717443714995271 0.3588017594927082 -1.3184332188896382 0.338238903095301" fill="#f7f1e2" transform="matrix(1,0,0,1,0,0)" fill-rule="nonzero"></path></g><g clip-path="url(#a4c5ea139-76ec-4471-9b6f-bcd032d23beb2a7e6711-7e74-4965-9019-01ffa89d6788)"><path d=" M -0.5013944095016647 0.2537025283160309 C -0.5013944095016647 0.4082544679321344 -0.6266804500873433 0.5335489400646382 -0.7812340760128119 0.5335489400646382 C -0.9357893882476455 0.5335489400646382 -1.061077115142689 0.4082544679321344 -1.061077115142689 0.2537025283160309 C -1.061077115142689 0.09915227500929247 -0.9357893882476455 -0.026137138195116205 -0.7812340760128119 -0.026137138195116205 C -0.6266804500873431 -0.026137138195116205 -0.5013944095016647 0.09915227500929247 -0.5013944095016647 0.2537025283160309" fill="#c9792a" transform="matrix(1,0,0,1,0,0)" fill-rule="nonzero"></path></g><g clip-path="url(#a4c5ea139-76ec-4471-9b6f-bcd032d23beb2a7e6711-7e74-4965-9019-01ffa89d6788)"><path d=" M -0.6888664805422544 0.25369915569730084 C -0.6888664805422544 0.3047167592274925 -0.7302232177200805 0.3460751827146836 -0.7812340760128119 0.3460751827146836 C -0.8322550521617336 0.3460751827146836 -0.8736117893395597 0.3047167592274925 -0.8736117893395597 0.25369915569730084 C -0.8736117893395597 0.2026866110952044 -0.8322550521617337 0.16132987391737827 -0.7812340760128119 0.16132987391737827 C -0.7302232177200805 0.16132987391737827 -0.6888664805422544 0.2026866110952044 -0.6888664805422544 0.25369915569730084" fill="#f7f1e2" transform="matrix(1,0,0,1,0,0)" fill-rule="nonzero"></path></g><g clip-path="url(#a4c5ea139-76ec-4471-9b6f-bcd032d23beb2a7e6711-7e74-4965-9019-01ffa89d6788)"><path d=" M -1.2387264341318684 0.5637170146053644 L -1.240439724446758 0.5894450365879166 L -0.6937264241323257 0.5853810310181485 L -1.2387264341318684 0.5637170146053644 M -0.6840773619455155 0.9383744840944852 L -0.6824703091206239 0.9592796612929972 L -1.230792348569313 0.9581768149682552 L -0.6840773619455155 0.9383744840944852 M -1.2397888090318492 0.9271183690827831 L -1.21898481039524 0.9255113162578916 L -1.2343588928763916 0.6119572666113203 L -1.2397888090318492 0.9271183690827833 M -0.7111611766575668 0.6037129001255959 L -0.697289595820674 0.6053216392598527 L -0.7075423567601719 0.9188756889064238 L -0.7111611766575668 0.6037129001255959" fill="#b2d3f0" transform="matrix(1,0,0,1,0,0)" fill-rule="nonzero"></path></g><g clip-path="url(#a4c5ea139-76ec-4471-9b6f-bcd032d23beb2a7e6711-7e74-4965-9019-01ffa89d6788)"><path d=" M -1.0843751653302058 1.0541649166455729 L -1.0843751653302058 1.0710465596990781 L -0.8424032619205986 1.0710465596990781 L -1.0843751653302058 1.0541649166455729" fill="#c9792a" transform="matrix(1,0,0,1,0,0)" fill-rule="nonzero"></path></g><g clip-path="url(#a4c5ea139-76ec-4471-9b6f-bcd032d23beb2a7e6711-7e74-4965-9019-01ffa89d6788)"><path d=" M -1.3443399896648855 0.18857388801910954 C -1.3491173040960693 0.1977575288211662 -1.3344835114261744 0.18538507700980192 -1.3299304761405422 0.18343570338380522 C -1.321525910265138 0.17982868765196536 -1.3122090510232425 0.17873427287404858 -1.3031738054453101 0.1782384979207242 C -1.2810831527631685 0.17702266886852394 -1.2597563982233941 0.1856413960332892 -1.2420366594154595 0.19816561568750812 C -1.224527709278156 0.21053806749887238 -1.2147909590043633 0.2279930557364942 -1.2102783951434923 0.24859301093993252 C -1.2073964924386236 0.2617327335123942 -1.2070221317595826 0.2857811913673575 -1.2183676211676322 0.2955381773535309 C -1.2262055870963797 0.3022800421949967 -1.2378377490964876 0.30416702237448656 -1.2477195219756747 0.30548571629795473 C -1.288465815163353 0.3109156324534126 -1.335604907153932 0.29105933967996084 -1.3326690425493817 0.2435104745136749 C -1.331748317636065 0.22857820508616616 -1.3064317551385847 0.22707064451381243 -1.2961621311054365 0.22839608367474096 C -1.2844979292273928 0.229910389484555 -1.2748960837028038 0.23828460179138822 -1.2673768302440505 0.24661328374536506 C -1.2639418180674458 0.2504175976729155 -1.2618895795701812 0.25488125856220023 -1.2601155821181496 0.259596179546877 L -1.2591830530392776 0.25565696087012263 C -1.2624886278340821 0.25639984608757144 -1.2658483700371914 0.25687690917985595 -1.2692300842362392 0.25708357859295405 C -1.2768049859040391 0.2577918285262746 -1.2983627648268254 0.2566535697048666 -1.2916782345037712 0.2418342830048162 C -1.2953661930851332 0.24785103481931087 -1.2990541516664955 0.2538694729431706 -1.3027421102478576 0.25988116582957027 C -1.3013003157407408 0.2589789903192692 -1.2998551486148937 0.2580717558808727 -1.2984116677984119 0.2571645214424764 C -1.2924758588334393 0.2534445229831784 -1.2896867031436483 0.2375021542460054 -1.2867862510357642 0.23568431275048246 C -1.2959648329097258 0.24143800030402962 -1.3013593365685174 0.25297741528905976 -1.3050506677686096 0.2629485625645943 C -1.312097754605149 0.2819853089866322 -1.2811067610942792 0.27920289853430136 -1.271843863752065 0.2775823552344893 C -1.2610413659595614 0.2756970613643644 -1.254999319504591 0.26343590597109345 -1.2505997383711782 0.2546670972728387 C -1.243738145564794 0.24099618725038668 -1.2486857772418476 0.23136567446659206 -1.258687278085953 0.22028324931949012 C -1.2871437486211545 0.18875938204926476 -1.3230891190465384 0.21334914521040885 -1.3379084057465889 0.24312768228780868 C -1.3540952893416938 0.2756633351770635 -1.3406233638243177 0.31157835203387657 -1.3052800058422562 0.3232830253366815 C -1.2750495378550233 0.33329801665570735 -1.2375224092452233 0.3306370204776601 -1.2183136592679507 0.30333904447624727 C -1.198838472411 0.2756633351770635 -1.1905215946225784 0.24426088218112163 -1.2018603387931677 0.21155659835536186 C -1.214782527457538 0.1742824161503191 -1.258142600161042 0.1545273019387707 -1.2953358395165624 0.15657110888920991 C -1.3237670154112882 0.15813431767061037 -1.3402827293325776 0.17482540776586508 -1.3526231412660061 0.19855009422273914 C -1.3598287411828605 0.2123980667285212 -1.346247205556756 0.19224498350682095 -1.3443399896648855 0.18857388801910932 M -0.7303260825913486 0.3102360497792978 C -0.7290276243802609 0.30776054763140587 -0.7433730581487326 0.31677218487822756 -0.7462060578820147 0.31797452345550753 C -0.7546224279229741 0.32155287192814147 -0.763947718711695 0.32261524682812226 -0.7729795916708974 0.32308572714097095 C -0.7950736169717689 0.3242222996530139 -0.8163717042523375 0.31553612011364673 -0.8340459127074158 0.30295625225038136 C -0.8515110188012279 0.29052140699251017 -0.8611938071753392 0.27303269256758744 -0.8656355460428783 0.25242093319859366 C -0.8684938404166362 0.23919183622978446 -0.8687569046775838 0.21531200931132602 -0.8573237271825519 0.2055432191595972 C -0.8494621529226936 0.1988300215773373 -0.8378198730663955 0.19697508127578336 -0.8279364138778434 0.19569517246771115 C -0.7871698849777844 0.1904035336801876 -0.7401033042899026 0.21040990798712864 -0.7431943093560374 0.2579520279159543 C -0.7441622509315755 0.27281853127822603 -0.7696204634157199 0.27425358054788274 -0.7798243213836311 0.27290116043711343 C -0.7914800917148497 0.27135144213063345 -0.8010532699802327 0.26294518994586424 -0.8085438561797802 0.25458615442331656 C -0.8119653778814646 0.2507734089489409 -0.8140058122131737 0.24630131651283094 -0.815766319190285 0.2415779639813287 C -0.8160580507104385 0.2429050894516223 -0.8163464096118619 0.24423052861255068 -0.8166398274413803 0.24555934039220928 C -0.8133262295390591 0.24482916843714309 -0.8099738465213417 0.24436374705238967 -0.8065877373163234 0.24416476254731379 C -0.7989993451736029 0.24348180725446894 -0.7774668608912926 0.2446841458317488 -0.7842019804952982 0.2594899420568788 L -0.7731364184418469 0.2414380003040294 L -0.7774752924381179 0.24414115421620286 C -0.7834144740218203 0.24784260327248547 -0.7862103749490715 0.26382544343441955 -0.7891007092007655 0.2656213629081968 C -0.7800637773134681 0.25999246224766337 -0.7758817300881465 0.24967056262419862 -0.7715833275166368 0.24022554387055928 C -0.7637234395661435 0.22295099073499766 -0.787292985561433 0.22163904204898943 -0.797930225036162 0.22259517945897225 C -0.8235233422695103 0.22490036436099414 -0.8351487590321579 0.2573550744007267 -0.8212063532019329 0.2765199803345082 C -0.7952742877862099 0.3121635013835484 -0.7560895170705668 0.29181143365677226 -0.7394136037595975 0.26099918893859764 C -0.7227208273549778 0.2301599632705819 -0.731545284262279 0.19326688698204067 -0.7660792137491169 0.17948805316022545 C -0.7910180429488262 0.16953882790643637 -0.8358165375407173 0.1672420745512399 -0.8534114894556382 0.1920645484047606 C -0.873375706028453 0.22023434634790373 -0.8854328179885531 0.24997409830990736 -0.8757584611612672 0.28464799147404435 C -0.865043651455746 0.3230520009536697 -0.8233041220520538 0.34491331556216465 -0.7856420886930501 0.3450128078147025 C -0.7569292991343612 0.34509375066422493 -0.7375670950048688 0.32989335804767345 -0.7248438908455743 0.3056273662846188 C -0.7165978380504848 0.28989915883680695 -0.7265706716353845 0.30307935283402965 -0.7303260825913485 0.3102360497792976" fill="#f3c380" transform="matrix(1,0,0,1,0,0)" fill-rule="nonzero"></path></g></g></g><defs><clipPath id="SvgjsClipPath1018"><path d=" M -1.5610358020017738 -0.026137138195116205 h 1.161035802001774 v 1.1232742763902321 h -1.161035802001774 Z"></path></clipPath><clipPath id="a4c5ea139-76ec-4471-9b6f-bcd032d23beb2a7e6711-7e74-4965-9019-01ffa89d6788"><path d=" M -1.5853557556645101 1.1423605827469991 L -0.371213012829249 1.1423605827469991 L -0.371213012829249 -0.0717821600882618 L -1.5853557556645101 -0.0717821600882618 Z"></path></clipPath></defs></svg>